<?xml version="1.0" encoding="UTF-8"?>
<svg width="24" height="24" version="1.1" viewBox="0 0 24 24" xmlns="http://www.w3.org/2000/svg">
 <path d="m20.3 10.9c0.536-4.4-3.26-5.75-8.33-5.75-5.06 0-8.86 1.36-8.33 5.75" fill="none" stroke="currentColor" stroke-width=".487"/>
 <path d="m21.3 11.8c1.67 2.46 1.94 4.81 1.86 7.4-2.34-0.774-4.54-0.803-6.04 3.2-2.53-2.2-3.87-1.36-5.11 0.477-1.23-1.84-2.57-2.67-5.11-0.477-1.51-4.01-3.71-3.98-6.04-3.2-0.0886-2.61 0.19-4.97 1.86-7.4" fill="none" stroke="currentColor" stroke-width=".487"/>
 <path d="m17.4 10.4c-1.16-3.17-4.92-0.385-4.25 0.886" fill="none" stroke="currentColor" stroke-width=".487"/>
 <path d="m6.29 5.26c-2.49-3.24-3.56-2.82-4.97-3.38-1.87 8.76 2.32 13.4 10.7 13.4 8.37 0 12.6-4.6 10.7-13.4-1.43 0.565-2.5 0.149-4.97 3.38" fill="none" stroke="currentColor" stroke-width=".487"/>
 <path d="m6.53 10.4c1.15-3.17 4.87-0.385 4.25 0.886" fill="none" stroke="currentColor" stroke-width=".487"/>
</svg>
