<?xml version="1.0" encoding="UTF-8"?>
<svg width="128" height="128" version="1.1" viewBox="0 0 128 128" xmlns="http://www.w3.org/2000/svg">
 <path d="m108 57.2c2.82-23.1-17.2-30.2-43.8-30.2-26.7 0-46.6 7.18-43.8 30.2" fill="none" stroke="currentColor" stroke-width="2.56"/>
 <path d="m113 62.1c8.77 12.9 10.2 25.3 9.77 39-12.3-4.08-23.9-4.23-31.8 16.9-13.3-11.6-20.4-7.18-26.9 2.51-6.46-9.69-13.5-14.1-26.9-2.51-7.95-21.1-19.5-20.9-31.8-16.9-0.466-13.8 1-26.1 9.77-39" fill="none" stroke="currentColor" stroke-width="2.56"/>
 <path d="m92.7 54.4c-6.1-16.7-25.9-2.02-22.4 4.66" fill="none" stroke="currentColor" stroke-width="2.56"/>
 <path d="m34 27.4c-13.1-17-18.8-14.8-26.1-17.8-9.84 46.1 12.2 70.5 56.4 70.5 44.1 0 66.1-24.2 56.4-70.5-7.51 2.97-13.1 0.782-26.1 17.8" fill="none" stroke="currentColor" stroke-width="2.56"/>
 <path d="m35.3 54.4c6.07-16.7 25.6-2.02 22.4 4.66" fill="none" stroke="currentColor" stroke-width="2.56"/>
</svg>
