<svg width="48" height="48" xmlns="http://www.w3.org/2000/svg" xmlns:xlink="http://www.w3.org/1999/xlink">
<symbol id="minimize" fill="none" stroke="currentColor" stroke-linecap="round" stroke-linejoin="round" stroke-width="3"><path d="m5 24h40"/></symbol>
<symbol id="play" fill="none" stroke="currentColor" stroke-linecap="round" stroke-linejoin="round" stroke-width="3"><path d="m3 3v42l42-21z"/></symbol>
<symbol id="settings" fill="none" stroke="currentColor" stroke-linecap="round" stroke-linejoin="round" stroke-width="3"><path d="m21.2 4.88h5.75l1.89-2.08 6.76 2.83-0.2 2.8 4.07 4.11 2.77-0.14 2.8 6.82-2.06 1.88v5.8l2.06 1.88-2.8 6.82-2.77-0.2-4.09 4.12 0.2 2.8-6.74 2.82-1.87-2.08h-5.77l-1.87 2.14-6.75-2.82 0.14-2.8-4.08-4.1-2.78 0.2-2.81-6.88 2.06-1.88v-5.82l-2.06-1.88 2.79-6.82 2.78 0.14 4.08-4.11-0.13-2.8 6.75-2.82z"/><circle cx="24" cy="24" r="9" /></symbol>
<symbol id="link" fill="none" stroke="currentColor" stroke-linecap="round" stroke-linejoin="round" stroke-width="3"><path d="m28.8 19.3c3.58 3.58 3.57 9.34 0 12.9l-7.87 7.85c-3.58 3.58-9.34 3.58-12.9 0-3.59-3.6-3.58-9.36 0-12.9" /><path d="m19.2 28.8c-3.59-3.6-3.58-9.36 0-12.9l7.86-7.85c3.59-3.58 9.34-3.57 12.9 0.02 3.57 3.59 3.57 9.34 0 12.9"/></symbol>
<symbol id="safe" fill="none" stroke="currentColor" stroke-linecap="round" stroke-linejoin="round" stroke-width="3"><path d="m6 2h33l7 7v33c0 2.26-1.74 4-4 4h-36c-2.26 0-4-1.74-4-4v-36c0-2.26 1.74-3.99 4-4z"/><rect x="9" y="25" width="30" height="19"/><rect x="24" y="6" width="6" height="10"/><rect x="12" y="2" width="24" height="18"/></symbol>
<symbol id="hide" fill="none" stroke="currentColor" stroke-linecap="round" stroke-linejoin="round" stroke-width="3"><path d="M34.30 34.81C33.50 35.32 32.72 35.73 32 36L32 36C26.62 37.99 21.33 38.01 16 36C10.67 33.99 2 24 2 24C2 24 8.01 17.07 13.11 13.59" fill="none" stroke="currentColor" stroke-width="2" /><path d="M15.10 12.58C15.60 12.15 15.69 12.11 16 12C21.39 10.14 26.62 10.01 32 12C37.38 13.99 46 24 46 24C46 24 41.50 29.23 36.97 32.88C36.67 33.12 36.60 33.18 36.13 33.61" fill="none" stroke="currentColor" stroke-width="2" /><path d="M29.40 29.90A8 8 0 0 1 24 32A8 8 0 0 1 16 24A8 8 0 0 1 18.10 18.60" fill="none" stroke="currentColor" stroke-width="2" /><path d="M9 10 38 39" fill="none" stroke="currentColor" stroke-width="2.12" /></symbol>
<symbol id="show" fill="none" stroke="currentColor" stroke-linecap="round" stroke-linejoin="round" stroke-width="3"><path d="M32 36C26.62 37.99 21.33 38.01 16 36C10.67 33.99 2 24 2 24c0 0 8.67-9.99 14-12 5.33-2.01 10.62-1.99 16 0 5.38 1.99 14 12 14 12 0 0-8.62 10.01-14 12z" fill="none" stroke="currentColor" stroke-width="2" /><circle cx="24" cy="24" r="8" fill="none" stroke="currentColor" stroke-width="2" /></symbol>
</svg>