<svg width="48" height="48" xmlns="http://www.w3.org/2000/svg" xmlns:xlink="http://www.w3.org/1999/xlink">
<symbol id="critical" class="206" fill="none" stroke="currentColor" stroke-linecap="round" stroke-linejoin="round" stroke-width="3"><path d="m3 16 13-13h16l13 13v16l-13 13h-16l-13-13z"/></symbol>
<symbol id="serious" class="102" fill="none" stroke="currentColor" stroke-linecap="round" stroke-linejoin="round" stroke-width="3"><path d="m3 45h42l-21-42z"/><path d="m17.5 27 13 13"/><path d="m30.5 27-13 13"/></symbol>
<symbol id="moderate" class="101" fill="none" stroke="currentColor" stroke-linecap="round" stroke-linejoin="round" stroke-width="3"><path d="m3 45h42l-21-42z" /><path d="m24 20v13" /><path d="m24 40v0"/></symbol>
<symbol id="minor" class="205" fill="none" stroke="currentColor" stroke-linecap="round" stroke-linejoin="round" stroke-width="3"><path d="m3 3h42l-21 42z"/></symbol>
<symbol id="minimize" fill="none" stroke="currentColor" stroke-linecap="round" stroke-linejoin="round" stroke-width="3"><path d="m5 24h40"/></symbol>
<symbol id="play" fill="none" stroke="currentColor" stroke-linecap="round" stroke-linejoin="round" stroke-width="3"><path d="m3 3v42l42-21z"/></symbol>
<symbol id="settings" fill="none" stroke="currentColor" stroke-linecap="round" stroke-linejoin="round" stroke-width="3"><path d="m21.2 4.88h5.75l1.89-2.08 6.76 2.83-0.2 2.8 4.07 4.11 2.77-0.14 2.8 6.82-2.06 1.88v5.8l2.06 1.88-2.8 6.82-2.77-0.2-4.09 4.12 0.2 2.8-6.74 2.82-1.87-2.08h-5.77l-1.87 2.14-6.75-2.82 0.14-2.8-4.08-4.1-2.78 0.2-2.81-6.88 2.06-1.88v-5.82l-2.06-1.88 2.79-6.82 2.78 0.14 4.08-4.11-0.13-2.8 6.75-2.82z"/><circle cx="24" cy="24" r="9" /></symbol>
<symbol id="link" fill="none" stroke="currentColor" stroke-linecap="round" stroke-linejoin="round" stroke-width="3"><path d="m28.8 19.3c3.58 3.58 3.57 9.34 0 12.9l-7.87 7.85c-3.58 3.58-9.34 3.58-12.9 0-3.59-3.6-3.58-9.36 0-12.9" /><path d="m19.2 28.8c-3.59-3.6-3.58-9.36 0-12.9l7.86-7.85c3.59-3.58 9.34-3.57 12.9 0.02 3.57 3.59 3.57 9.34 0 12.9"/></symbol>
<symbol id="safe" fill="none" stroke="currentColor" stroke-linecap="round" stroke-linejoin="round" stroke-width="3"><path d="m6 2h33l7 7v33c0 2.26-1.74 4-4 4h-36c-2.26 0-4-1.74-4-4v-36c0-2.26 1.74-3.99 4-4z"/><rect x="9" y="25" width="30" height="19"/><rect x="24" y="6" width="6" height="10"/><rect x="12" y="2" width="24" height="18"/></symbol>
</svg>